<?xml version="1.0" standalone="no"?>
<!DOCTYPE svg PUBLIC "-//W3C//DTD SVG 20010904//EN"
 "http://www.w3.org/TR/2001/REC-SVG-20010904/DTD/svg10.dtd">
<svg version="1.0" xmlns="http://www.w3.org/2000/svg"
 width="280.000000pt" height="280.000000pt" viewBox="0 0 280.000000 280.000000"
 preserveAspectRatio="xMidYMid meet">
<metadata>
Created by potrace 1.14, written by Peter Selinger 2001-2017
</metadata>
<g transform="translate(0.000000,280.000000) scale(0.100000,-0.100000)"
fill="#000000" stroke="none">
<path d="M106 2532 c-3 -4 -3 -25 -1 -45 1 -20 -1 -37 -6 -37 -6 0 -6 -7 -2
-17 8 -16 9 -53 3 -78 -1 -5 -1 -12 0 -15 1 -3 3 -24 4 -47 1 -27 -2 -40 -8
-35 -6 3 -6 -1 1 -9 10 -12 34 -15 102 -15 101 1 102 0 107 -86 1 -21 5 -46 9
-55 4 -10 9 -38 10 -63 6 -77 13 -137 19 -156 3 -11 6 -43 7 -72 1 -29 6 -55
11 -58 4 -3 8 -17 7 -32 0 -15 3 -52 7 -82 4 -30 8 -67 8 -82 1 -16 4 -28 8
-28 3 0 5 -8 4 -17 -2 -9 1 -37 6 -62 5 -25 11 -66 14 -91 6 -75 12 -120 19
-169 5 -25 9 -57 10 -71 2 -14 8 -61 15 -105 7 -44 13 -96 14 -115 1 -19 4
-39 7 -45 3 -5 7 -32 8 -59 2 -27 6 -59 10 -70 4 -12 7 -40 6 -63 0 -24 2 -43
5 -43 4 0 7 -23 9 -51 1 -28 6 -62 12 -76 5 -13 7 -29 3 -34 -3 -5 -2 -15 3
-21 4 -7 8 -20 10 -28 1 -8 7 -16 13 -18 5 -2 8 -7 5 -12 -3 -4 2 -13 10 -20
8 -7 15 -18 15 -25 0 -7 13 -18 30 -25 17 -7 27 -17 23 -24 -3 -6 -3 -8 2 -4
4 4 14 3 22 -3 7 -6 13 -8 13 -4 0 4 7 2 15 -5 18 -15 175 -21 175 -7 0 6 3 7
7 4 16 -17 133 72 125 96 -1 4 2 7 6 7 4 0 16 22 27 49 l19 50 385 0 c213 0
391 -3 397 -7 10 -6 28 -49 26 -62 -1 -8 51 -74 66 -84 8 -4 23 -17 33 -27 11
-11 19 -17 19 -14 0 2 12 0 28 -6 34 -14 172 -19 172 -6 0 5 7 7 15 3 8 -3 15
-2 15 2 0 4 14 13 32 21 31 14 98 71 83 71 -4 0 0 11 9 25 9 14 14 25 10 25
-4 0 -1 7 6 15 7 8 9 15 5 15 -4 0 -3 6 3 13 6 7 30 14 54 16 23 1 45 4 47 7
10 10 7 219 -3 234 -16 23 -9 22 -219 18 -66 -2 -121 1 -124 5 -3 4 -10 4 -16
0 -7 -5 -30 -8 -52 -6 -22 2 -44 3 -50 3 -5 0 -64 0 -130 0 -66 0 -129 0 -140
0 -11 0 -76 0 -145 -1 -69 0 -129 0 -135 1 -5 1 -14 2 -20 1 -27 -5 -255 -2
-264 3 -5 4 -12 3 -14 -2 -3 -4 -23 -6 -44 -5 -44 3 -147 4 -213 2 -65 -2 -76
5 -79 53 -1 23 -5 46 -9 52 -4 6 -7 22 -8 36 -1 14 -5 39 -9 57 -6 25 -3 33
11 40 11 6 342 9 782 9 838 -1 783 -5 797 59 4 17 7 38 8 48 1 9 5 17 10 17 5
0 7 6 4 14 -3 7 0 19 6 25 6 6 7 11 3 11 -5 0 -4 6 1 13 9 11 20 44 23 72 1 6
5 15 9 20 4 6 7 17 6 25 0 8 3 17 7 20 4 3 9 17 10 30 2 14 6 27 10 30 5 5 18
56 20 88 1 6 4 12 8 12 4 0 7 6 8 13 1 16 7 38 16 59 4 9 5 22 1 28 -3 5 -2
10 3 10 5 0 13 15 17 33 4 17 9 34 10 37 10 26 15 42 26 85 6 28 16 56 22 63
5 6 7 12 3 12 -3 0 -1 12 5 28 6 15 12 34 14 43 2 9 9 35 16 57 7 23 9 45 5
49 -4 4 -457 8 -1006 8 -549 0 -1002 3 -1006 7 -8 8 -15 47 -19 98 -1 19 -6
46 -10 59 -4 13 -9 40 -11 60 -1 20 -8 65 -13 101 -6 36 -13 83 -14 105 -2 22
-6 47 -10 55 -3 8 -7 29 -9 45 l-3 30 -217 3 c-119 1 -219 -1 -222 -6z"/>
</g>
</svg>
